# xmcd CD database file
#
# Track frame offsets:
#	150
#	1467
#	17673
#	37551
#	54341
#	82188
#	104330
#	124639
#	141910
#	158001
#	161488
#	175358
#	197121
#
# Disc length: 2649 seconds
#
# Revision: 0
# Processed by: cddbd v1.4PL0 Copyright (c) Steve Scherf et al.
# Submitted via: CDex 1.50
#
DISCID=9d0a570d
DTITLE=Time After Time - Time After Time
DYEAR=1999
DGENRE=Jazz
TTITLE0=Street
TTITLE1=Time After Time - We gonna sing
TTITLE2=Starwars
TTITLE3=Jazz You up
TTITLE4=Sulriets
TTITLE5=Babylon
TTITLE6=Tribute to James Bond
TTITLE7=Funky Splash
TTITLE8=Bumba
TTITLE9=Surprise
TTITLE10=What about Milk?
TTITLE11=Summertime
TTITLE12=Bonus track
EXTD=YEAR: 1999
EXTT0=
EXTT1=
EXTT2=
EXTT3=
EXTT4=
EXTT5=
EXTT6=
EXTT7=
EXTT8=
EXTT9=
EXTT10=
EXTT11=
EXTT12=
PLAYORDER=
